# xmcd
#
# Track frame offsets: 
#        150
#        16222
#        37992
#
# Disc length: 630 seconds
#
# Revision: 1
# Processed by: cddbd v1.5.2PL0 Copyright (c) Steve Scherf et al.
# Submitted via: ExactAudioCopy v1.0b3
#
DISCID=16027403
DTITLE=XL(EXTRA LARGE) - O・K！
DYEAR=1998
DGENRE=JPop
TTITLE0=O・K！
TTITLE1=みちばた
TTITLE2=XLのテーマ（EXTRA LONG SIZE）
EXTD=YEAR: 1998
EXTT0=
EXTT1=
EXTT2=
PLAYORDER=
